<svg width="12" height="15" viewBox="0 0 12 15" fill="none" xmlns="http://www.w3.org/2000/svg">
<path d="M4.00033 6.9545L5.33366 8.28784L8.33366 5.28784M11.3337 7.28784C11.3337 10.5601 7.76435 12.9401 6.46565 13.6978C6.31806 13.7839 6.24426 13.8269 6.14011 13.8492C6.05929 13.8666 5.94136 13.8666 5.86054 13.8492C5.75639 13.8269 5.68259 13.7839 5.535 13.6978C4.2363 12.9401 0.666992 10.5601 0.666992 7.28784V4.09957C0.666992 3.56656 0.666992 3.30006 0.754166 3.07097C0.831175 2.8686 0.956314 2.68802 1.11876 2.54486C1.30266 2.3828 1.55219 2.28922 2.05126 2.10207L5.62579 0.76162C5.76439 0.709646 5.83369 0.683659 5.90498 0.673357C5.96822 0.66422 6.03244 0.66422 6.09567 0.673357C6.16696 0.683659 6.23626 0.709646 6.37486 0.76162L9.94939 2.10207C10.4485 2.28922 10.698 2.3828 10.8819 2.54486C11.0443 2.68802 11.1695 2.8686 11.2465 3.07097C11.3337 3.30006 11.3337 3.56656 11.3337 4.09957V7.28784Z" stroke="#163B6D" stroke-width="1.33333" stroke-linecap="round" stroke-linejoin="round"/>
</svg>
