<svg width="16" height="16" viewBox="0 0 16 16" fill="none" xmlns="http://www.w3.org/2000/svg">
<path d="M14.6667 5.66602H1.33333M1.33333 8.33268H3.69778C4.05791 8.33268 4.23797 8.33268 4.41209 8.36372C4.56664 8.39127 4.7174 8.43691 4.86127 8.49972C5.02336 8.57048 5.17318 8.67036 5.47282 8.87012L5.86051 9.12858C6.16015 9.32834 6.30997 9.42822 6.47206 9.49898C6.61593 9.56178 6.7667 9.60743 6.92124 9.63498C7.09536 9.66602 7.27542 9.66602 7.63555 9.66602H8.36445C8.72458 9.66602 8.90464 9.66602 9.07876 9.63498C9.2333 9.60743 9.38407 9.56178 9.52794 9.49898C9.69003 9.42822 9.83985 9.32834 10.1395 9.12858L10.5272 8.87012C10.8268 8.67036 10.9766 8.57048 11.1387 8.49972C11.2826 8.43691 11.4334 8.39127 11.5879 8.36372C11.762 8.33268 11.9421 8.33268 12.3022 8.33268H14.6667M1.33333 4.79935L1.33333 11.1993C1.33333 11.9461 1.33333 12.3195 1.47866 12.6047C1.60649 12.8556 1.81046 13.0595 2.06135 13.1874C2.34656 13.3327 2.71993 13.3327 3.46667 13.3327L12.5333 13.3327C13.2801 13.3327 13.6534 13.3327 13.9387 13.1874C14.1895 13.0595 14.3935 12.8556 14.5213 12.6047C14.6667 12.3195 14.6667 11.9461 14.6667 11.1993V4.79935C14.6667 4.05261 14.6667 3.67925 14.5213 3.39403C14.3935 3.14315 14.1895 2.93917 13.9387 2.81134C13.6534 2.66602 13.2801 2.66602 12.5333 2.66602L3.46667 2.66602C2.71993 2.66602 2.34656 2.66602 2.06135 2.81134C1.81046 2.93917 1.60649 3.14315 1.47866 3.39403C1.33333 3.67924 1.33333 4.05261 1.33333 4.79935Z" stroke="#374151" stroke-width="1.33333" stroke-linecap="round" stroke-linejoin="round"/>
</svg>
