<svg width="40" height="40" viewBox="0 0 40 40" fill="none" xmlns="http://www.w3.org/2000/svg">
<path d="M24.9998 4.58008H9.99984C9.11578 4.58008 8.26794 4.93127 7.64281 5.55639C7.01769 6.18151 6.6665 7.02936 6.6665 7.91341V34.5801C6.6665 35.4641 7.01769 36.312 7.64281 36.9371C8.26794 37.5622 9.11578 37.9134 9.99984 37.9134H29.9998C30.8839 37.9134 31.7317 37.5622 32.3569 36.9371C32.982 36.312 33.3332 35.4641 33.3332 34.5801V12.9134L24.9998 4.58008Z" stroke="#374151" stroke-width="3.33333" stroke-linecap="round" stroke-linejoin="round"/>
<path d="M23.3335 4.58008V11.2467C23.3335 12.1308 23.6847 12.9786 24.3098 13.6038C24.9349 14.2289 25.7828 14.5801 26.6668 14.5801H33.3335" stroke="#374151" stroke-width="3.33333" stroke-linecap="round" stroke-linejoin="round"/>
<path d="M16.6668 16.25H13.3335" stroke="#374151" stroke-width="3.33333" stroke-linecap="round" stroke-linejoin="round"/>
<path d="M26.6668 22.9199H13.3335" stroke="#374151" stroke-width="3.33333" stroke-linecap="round" stroke-linejoin="round"/>
<path d="M26.6668 29.5801H13.3335" stroke="#374151" stroke-width="3.33333" stroke-linecap="round" stroke-linejoin="round"/>
</svg>
