<svg width="12" height="15" viewBox="0 0 12 15" fill="none" xmlns="http://www.w3.org/2000/svg">
<path d="M4.00033 6.95402L5.33366 8.28735L8.33366 5.28735M11.3337 7.28735C11.3337 10.5596 7.76435 12.9396 6.46565 13.6973C6.31806 13.7834 6.24426 13.8264 6.14011 13.8488C6.05929 13.8661 5.94136 13.8661 5.86054 13.8488C5.75639 13.8264 5.68259 13.7834 5.535 13.6973C4.2363 12.9396 0.666992 10.5596 0.666992 7.28735V4.09908C0.666992 3.56608 0.666992 3.29957 0.754166 3.07048C0.831175 2.86811 0.956314 2.68753 1.11876 2.54437C1.30266 2.38231 1.55219 2.28873 2.05126 2.10158L5.62579 0.761131C5.76439 0.709157 5.83369 0.683171 5.90498 0.672869C5.96822 0.663731 6.03244 0.663731 6.09567 0.672869C6.16696 0.683171 6.23626 0.709157 6.37486 0.761131L9.94939 2.10158C10.4485 2.28873 10.698 2.38231 10.8819 2.54437C11.0443 2.68753 11.1695 2.86811 11.2465 3.07048C11.3337 3.29957 11.3337 3.56607 11.3337 4.09908V7.28735Z" stroke="#163B6D" stroke-width="1.33333" stroke-linecap="round" stroke-linejoin="round"/>
</svg>
