<svg width="32" height="32" viewBox="0 0 32 32" fill="none" xmlns="http://www.w3.org/2000/svg">
<rect width="32" height="32" rx="8" fill="#FFFBEB"/>
<path d="M13.1583 17.2587L18.85 20.5753M18.8417 11.4253L13.1583 14.742M23.5 10.167C23.5 11.5477 22.3807 12.667 21 12.667C19.6193 12.667 18.5 11.5477 18.5 10.167C18.5 8.78628 19.6193 7.66699 21 7.66699C22.3807 7.66699 23.5 8.78628 23.5 10.167ZM13.5 16.0003C13.5 17.381 12.3807 18.5003 11 18.5003C9.61929 18.5003 8.5 17.381 8.5 16.0003C8.5 14.6196 9.61929 13.5003 11 13.5003C12.3807 13.5003 13.5 14.6196 13.5 16.0003ZM23.5 21.8337C23.5 23.2144 22.3807 24.3337 21 24.3337C19.6193 24.3337 18.5 23.2144 18.5 21.8337C18.5 20.4529 19.6193 19.3337 21 19.3337C22.3807 19.3337 23.5 20.4529 23.5 21.8337Z" stroke="#D97706" stroke-width="1.66667" stroke-linecap="round" stroke-linejoin="round"/>
</svg>
