<svg width="32" height="32" viewBox="0 0 32 32" fill="none" xmlns="http://www.w3.org/2000/svg">
<rect x="0.5" y="0.5" width="31" height="31" rx="15.5" fill="#163B6D"/>
<rect x="0.5" y="0.5" width="31" height="31" rx="15.5" stroke="#163B6D"/>
<path d="M11.5 13C11.5 11.8065 11.9741 10.6619 12.818 9.81802C13.6619 8.97411 14.8065 8.5 16 8.5C17.1935 8.5 18.3381 8.97411 19.182 9.81802C20.0259 10.6619 20.5 11.8065 20.5 13C20.5 18.25 22.75 19.75 22.75 19.75H9.25C9.25 19.75 11.5 18.25 11.5 13Z" stroke="white" stroke-width="1.5" stroke-linecap="round" stroke-linejoin="round"/>
<path d="M14.7252 22.75C14.8507 22.9783 15.0352 23.1688 15.2595 23.3014C15.4838 23.434 15.7396 23.504 16.0002 23.504C16.2607 23.504 16.5165 23.434 16.7408 23.3014C16.9651 23.1688 17.1496 22.9783 17.2752 22.75" stroke="white" stroke-width="1.5" stroke-linecap="round" stroke-linejoin="round"/>
</svg>
