<svg width="16" height="16" viewBox="0 0 16 16" fill="none" xmlns="http://www.w3.org/2000/svg">
<path d="M14.6666 5.66699H1.33325M1.33325 8.33366H3.6977C4.05783 8.33366 4.23789 8.33366 4.41201 8.3647C4.56655 8.39224 4.71732 8.43789 4.86119 8.5007C5.02328 8.57145 5.1731 8.67134 5.47274 8.8711L5.86043 9.12955C6.16007 9.32932 6.30989 9.4292 6.47198 9.49995C6.61585 9.56276 6.76662 9.60841 6.92116 9.63596C7.09528 9.66699 7.27534 9.66699 7.63547 9.66699H8.36437C8.7245 9.66699 8.90456 9.66699 9.07868 9.63596C9.23322 9.60841 9.38399 9.56276 9.52786 9.49995C9.68995 9.4292 9.83977 9.32932 10.1394 9.12955L10.5271 8.8711C10.8267 8.67134 10.9766 8.57145 11.1386 8.5007C11.2825 8.43789 11.4333 8.39224 11.5878 8.3647C11.7619 8.33366 11.942 8.33366 12.3021 8.33366H14.6666M1.33325 4.80033L1.33325 11.2003C1.33325 11.9471 1.33325 12.3204 1.47858 12.6056C1.60641 12.8565 1.81038 13.0605 2.06126 13.1883C2.34648 13.3337 2.71985 13.3337 3.46659 13.3337L12.5333 13.3337C13.28 13.3337 13.6534 13.3337 13.9386 13.1883C14.1895 13.0605 14.3934 12.8565 14.5213 12.6056C14.6666 12.3204 14.6666 11.9471 14.6666 11.2003V4.80033C14.6666 4.05359 14.6666 3.68022 14.5213 3.39501C14.3934 3.14412 14.1895 2.94015 13.9386 2.81232C13.6534 2.66699 13.28 2.66699 12.5333 2.66699L3.46659 2.66699C2.71985 2.66699 2.34648 2.66699 2.06126 2.81232C1.81038 2.94015 1.60641 3.14412 1.47858 3.395C1.33325 3.68022 1.33325 4.05359 1.33325 4.80033Z" stroke="#374151" stroke-width="1.33333" stroke-linecap="round" stroke-linejoin="round"/>
</svg>
