<svg width="16" height="16" viewBox="0 0 16 16" fill="none" xmlns="http://www.w3.org/2000/svg">
<path d="M9.99996 1.83203H3.99996C3.64634 1.83203 3.3072 1.97251 3.05715 2.22256C2.8071 2.4726 2.66663 2.81174 2.66663 3.16536V13.832C2.66663 14.1857 2.8071 14.5248 3.05715 14.7748C3.3072 15.0249 3.64634 15.1654 3.99996 15.1654H12C12.3536 15.1654 12.6927 15.0249 12.9428 14.7748C13.1928 14.5248 13.3333 14.1857 13.3333 13.832V5.16536L9.99996 1.83203Z" stroke="#92949F" stroke-width="1.33333" stroke-linecap="round" stroke-linejoin="round"/>
<path d="M9.33337 1.83203V4.4987C9.33337 4.85232 9.47385 5.19146 9.7239 5.44151C9.97395 5.69156 10.3131 5.83203 10.6667 5.83203H13.3334" stroke="#92949F" stroke-width="1.33333" stroke-linecap="round" stroke-linejoin="round"/>
<path d="M6.66671 6.5H5.33337" stroke="#92949F" stroke-width="1.33333" stroke-linecap="round" stroke-linejoin="round"/>
<path d="M10.6667 9.16797H5.33337" stroke="#92949F" stroke-width="1.33333" stroke-linecap="round" stroke-linejoin="round"/>
<path d="M10.6667 11.832H5.33337" stroke="#92949F" stroke-width="1.33333" stroke-linecap="round" stroke-linejoin="round"/>
</svg>
