<svg width="32" height="32" viewBox="0 0 32 32" fill="none" xmlns="http://www.w3.org/2000/svg">
<rect width="32" height="32" rx="8" fill="#FEF2F2"/>
<path d="M24.1083 21.0008L17.4416 9.33417C17.2962 9.07768 17.0854 8.86433 16.8307 8.7159C16.576 8.56746 16.2864 8.48926 15.9916 8.48926C15.6968 8.48926 15.4072 8.56746 15.1525 8.7159C14.8978 8.86433 14.687 9.07768 14.5416 9.33417L7.87494 21.0008C7.72801 21.2553 7.65096 21.5441 7.65162 21.8379C7.65227 22.1318 7.73059 22.4202 7.87865 22.674C8.0267 22.9278 8.23923 23.138 8.49469 23.2832C8.75014 23.4284 9.03945 23.5035 9.33327 23.5008H22.6666C22.959 23.5005 23.2462 23.4233 23.4993 23.2769C23.7525 23.1305 23.9626 22.9201 24.1087 22.6668C24.2548 22.4135 24.3316 22.1262 24.3316 21.8337C24.3315 21.5413 24.2545 21.2541 24.1083 21.0008Z" stroke="#EF4444" stroke-width="1.66667" stroke-linecap="round" stroke-linejoin="round"/>
<path d="M16 13.5V16.8333" stroke="#EF4444" stroke-width="1.66667" stroke-linecap="round" stroke-linejoin="round"/>
<path d="M16 20.166H16.0079" stroke="#EF4444" stroke-width="1.66667" stroke-linecap="round" stroke-linejoin="round"/>
</svg>
