<svg width="16" height="16" viewBox="0 0 16 16" fill="none" xmlns="http://www.w3.org/2000/svg">
<path d="M13.3334 8.33301V4.53301C13.3334 3.4129 13.3334 2.85285 13.1154 2.42503C12.9237 2.0487 12.6177 1.74274 12.2414 1.55099C11.8136 1.33301 11.2535 1.33301 10.1334 1.33301H5.86675C4.74664 1.33301 4.18659 1.33301 3.75877 1.55099C3.38244 1.74274 3.07648 2.0487 2.88474 2.42503C2.66675 2.85285 2.66675 3.4129 2.66675 4.53301V11.4663C2.66675 12.5864 2.66675 13.1465 2.88474 13.5743C3.07648 13.9506 3.38244 14.2566 3.75877 14.4484C4.18659 14.6663 4.74664 14.6663 5.86675 14.6663H8.00008M9.33341 7.33301H5.33341M6.66675 9.99967H5.33341M10.6667 4.66634H5.33341M9.66675 12.6663L11.0001 13.9997L14.0001 10.9997" stroke="#374151" stroke-width="1.33333" stroke-linecap="round" stroke-linejoin="round"/>
</svg>
