<svg width="153" height="35" viewBox="0 0 153 35" fill="none" xmlns="http://www.w3.org/2000/svg">
<path fill-rule="evenodd" clip-rule="evenodd" d="M28.8704 9.22259L28.9387 9.18237C29.0996 9.09389 29.2324 8.96518 29.3249 8.8043C29.5984 8.32567 29.4335 7.71432 28.9548 7.44082L15.8992 0.132728C15.7464 0.0442427 15.5775 0 15.4085 0H15.3844H15.3804H15.3683H15.3643H15.3562H15.3522H15.3482H15.3402H15.3361H15.3281H15.3241H15.316H15.312H15.304H15.2959H15.2879H15.2798H15.2718H15.2637H15.2557H15.2476H15.2396H15.2316H15.2235H15.2155H15.2074H15.1994H15.1913H15.1833H15.1752H15.1672H15.1592H15.1511H15.1431H15.135L15.131 0.00402206H15.123H15.1189H15.1109L15.1069 0.00804413H15.0988H15.0948H15.0868L15.0827 0.0120662L15.0747 0.0160883H15.0707H15.0626V0.0201103H15.0586L15.0506 0.0241324H15.0465H15.0385V0.0281544H15.0345L15.0264 0.0361986H15.0224H15.0144V0.0402206H15.0063L14.9983 0.0482648H14.9902H14.9822V0.0522868H14.9741L14.9661 0.060331L14.9581 0.064353H14.95L0.583199 8.6595C0.394162 8.74799 0.245346 8.88474 0.140772 9.05769V9.06573V9.07378H0.132728V9.08584V9.09389V9.10193L0.124684 9.10595V9.114V9.12204V9.13008L0.11664 9.13813H0.0965295V9.14617V9.15422V9.16226L0.0884854 9.17031V9.17835V9.18639H0.0844633V9.19846V9.2065V9.21455L0.0804413 9.21857V9.23064V9.23868V9.24673L0.0764192 9.25477V9.26281V9.27086V9.2789L0.0723972 9.28695V9.29499V9.30303V9.31108L0.0683751 9.31912V9.32717V9.33521V9.34728V9.35532V9.36337V9.36739V9.37945V9.3875V9.39554V9.40359H0.0120662V9.41163V9.41967V9.42772V9.43576V9.44381V9.45185V9.45989V9.46794V9.47598V9.48403V9.48805V9.50012V9.50816V9.5162V9.52425V9.53631V9.54436H0V9.5524V24.969C0 25.154 0.0522868 25.331 0.144794 25.4798V25.4878H0.148816V25.4999V25.5079V25.516H0.152838L0.15686 25.528V25.5361V25.5441H0.164905L0.168927 25.5522V25.5602V25.5683L0.176971 25.5723L0.180993 25.5803V25.5843H0.185015L0.189037 25.5964L0.193059 25.6045H0.197081L0.201103 25.6165H0.205125V25.6246H0.209147L0.213169 25.6366L0.217191 25.6407H0.221214V25.6487L0.225236 25.6567V25.6608H0.229258V25.6688L0.23328 25.6769V25.6809H0.237302V25.6889L0.241324 25.697H0.245346V25.701H0.249368L0.25339 25.709L0.257412 25.7131H0.261434V25.7171H0.265456L0.269478 25.7251L0.2735 25.7291H0.277522V25.7332H0.281544L0.289589 25.7412L0.293611 25.7452H0.301655V25.7533L0.309699 25.7613V25.7653H0.317743V25.7734L0.325787 25.7814V25.7855H0.333831L0.337853 25.7935L0.345897 25.7975H0.34992V25.8015H0.357964L0.366008 25.8096L0.374052 25.8136H0.382096L15.2517 34.819H15.2597L15.2678 34.827L15.2758 34.8311H15.2838V34.8351H15.2919L15.2999 34.8431L15.308 34.8472H15.316V34.8512H15.3241L15.3321 34.8592L15.3402 34.8633H15.3482V34.8673H15.3562L15.3643 34.8753L15.3723 34.8793H15.3804H15.3884L15.3924 34.8874L15.4005 34.8914H15.4045H15.4125L15.4166 34.8954L15.4246 34.8994H15.4286H15.4407V34.9075H15.4487L15.4528 34.9115L15.4608 34.9155H15.4648H15.4689H15.4769H15.4809H15.489H15.493H15.501H15.5051H15.5131H15.5171H15.5252H15.5292H15.5372H15.5453H15.5533H15.5614H15.5694H15.5775H15.5855H15.5935H15.6016H15.6096H15.6177H15.6257H15.6338H15.6418H15.6499H15.6579H15.6659H15.674H15.682H15.6901H15.6981H15.7062H15.7142H15.7222C15.9073 34.9155 16.0883 34.8673 16.2532 34.7667L30.254 26.1555C30.7245 25.8659 30.8693 25.2465 30.5838 24.7759C30.2942 24.3053 29.6748 24.1565 29.2042 24.4461L15.7222 32.7356L2.00701 24.4139V10.1356L15.4085 2.15583L26.4209 8.28143L21.0877 11.2256L16.0681 8.49058C15.9354 8.4222 15.7946 8.38198 15.6539 8.37796V10.5338L20.597 13.2286C20.9027 13.4055 21.2727 13.4136 21.5824 13.2406L28.8744 9.22259H28.8704ZM11.2417 11.0084V13.3935L22.9016 20.0259C23.3883 20.2913 23.5653 20.9027 23.2998 21.3893C23.2154 21.5422 23.0947 21.6709 22.9419 21.7634L20.4884 23.3642V20.9871L8.81636 14.3467C8.67157 14.2663 8.55091 14.1536 8.4584 14.0129C8.15675 13.5503 8.28947 12.9309 8.75201 12.6293L11.2417 11.0124V11.0084ZM14.1134 22.966V25.3149L8.54286 21.876C8.0763 21.5864 7.92749 20.967 8.21708 20.5005C8.50667 20.0339 9.12606 19.8851 9.59262 20.1747L14.1134 22.962V22.966ZM36.464 34.996H36.8542V0H36.464V35V34.996ZM44.4478 30.3827L44.2306 30.1655C44.1341 30.2499 44.0255 30.3304 43.9129 30.3907C43.7721 30.4671 43.6112 30.4953 43.4544 30.4953C43.3217 30.4953 43.1889 30.4712 43.0683 30.4148C42.9516 30.3626 42.847 30.2861 42.7626 30.1896C42.6741 30.0931 42.6097 29.9805 42.5615 29.8598C42.5132 29.7311 42.4931 29.5943 42.4931 29.4576C42.4931 29.3208 42.5132 29.1841 42.5615 29.0594C42.6057 28.9387 42.6741 28.8261 42.7626 28.7336C42.8511 28.6411 42.9516 28.5647 43.0683 28.5124C43.1889 28.4561 43.3217 28.432 43.4544 28.432C43.6112 28.432 43.7601 28.4601 43.9008 28.5325C44.0134 28.5888 44.114 28.6612 44.2105 28.7417L44.4317 28.4883C44.3835 28.444 44.3312 28.4038 44.2789 28.3676C44.2065 28.3194 44.1341 28.2751 44.0537 28.2389C43.9692 28.2027 43.8767 28.1746 43.7842 28.1544C43.6756 28.1343 43.567 28.1263 43.4584 28.1263C43.2734 28.1263 43.0884 28.1585 42.9194 28.2309C42.7626 28.2992 42.6178 28.3958 42.4971 28.5205C42.3765 28.6451 42.288 28.7859 42.2236 28.9468C42.1553 29.1157 42.1271 29.2887 42.1271 29.4697C42.1271 29.6507 42.1593 29.8276 42.2276 29.9966C42.292 30.1534 42.3845 30.2982 42.5011 30.4189C42.6218 30.5395 42.7586 30.6361 42.9154 30.7004C43.0843 30.7728 43.2573 30.805 43.4423 30.805C43.5549 30.805 43.6675 30.7969 43.7761 30.7728C43.8686 30.7527 43.9612 30.7245 44.0496 30.6803C44.1341 30.6401 44.2105 30.5918 44.2869 30.5355C44.3473 30.4913 44.3996 30.443 44.4519 30.3907L44.4478 30.3827ZM47.762 30.7527L47.0461 29.7512L47.1386 29.7271C47.2231 29.7029 47.3075 29.6708 47.3839 29.6225C47.4563 29.5783 47.5167 29.526 47.573 29.4616C47.6253 29.3973 47.6655 29.3249 47.6936 29.2444C47.7258 29.1559 47.7379 29.0554 47.7379 28.9629C47.7379 28.8503 47.7178 28.7376 47.6735 28.6291C47.6333 28.5325 47.573 28.4481 47.4925 28.3797C47.4081 28.3073 47.3035 28.255 47.1989 28.2228C47.0702 28.1826 46.9335 28.1665 46.7967 28.1665H45.6504V30.7527H45.9923V29.8035H46.6921L47.3638 30.7527H47.762ZM47.388 28.987C47.388 29.1439 47.3316 29.2766 47.211 29.3731C47.0823 29.4777 46.9214 29.5139 46.7605 29.5139H45.9923V28.4641H46.7565C46.9174 28.4641 47.0863 28.4923 47.215 28.5929C47.3397 28.6894 47.388 28.8302 47.388 28.987ZM50.8791 28.1665H49.0008V30.7527H50.8992V30.4551H49.3427V29.5943H50.7062V29.2967H49.3427V28.4641H50.8791V28.1665ZM52.142 28.1665V30.7527H53.0872C53.2803 30.7527 53.4693 30.7245 53.6463 30.6521C53.8072 30.5878 53.956 30.4993 54.0847 30.3786C54.2094 30.262 54.3019 30.1253 54.3662 29.9684C54.4346 29.8035 54.4668 29.6346 54.4668 29.4576C54.4668 29.2806 54.4346 29.1117 54.3662 28.9468C54.3019 28.7899 54.2054 28.6532 54.0847 28.5365C53.96 28.4159 53.8112 28.3274 53.6463 28.263C53.4693 28.1947 53.2763 28.1625 53.0872 28.1625H52.142V28.1665ZM54.1008 29.4616C54.1008 29.5984 54.0807 29.7311 54.0284 29.8598C53.9801 29.9764 53.9117 30.085 53.8233 30.1735C53.7308 30.266 53.6222 30.3344 53.5015 30.3786C53.3688 30.4309 53.228 30.451 53.0872 30.451H52.4839V28.4601H53.0872C53.228 28.4601 53.3688 28.4802 53.5015 28.5365C53.6222 28.5848 53.7308 28.6532 53.8233 28.7457C53.9117 28.8382 53.9801 28.9428 54.0284 29.0634C54.0807 29.1881 54.1008 29.3249 54.1008 29.4616ZM57.6 28.1665H55.7217V30.7527H57.6201V30.4551H56.0635V29.5943H57.427V29.2967H56.0635V28.4641H57.6V28.1665ZM59.2088 28.1665H58.8669V30.7527H59.2088V28.6894L60.8056 30.7527H61.1072V28.1665H60.7653V30.1735L59.2128 28.1665H59.2088ZM64.353 28.4762V28.1665H62.2817V28.4762H63.1424V30.7527H63.4923V28.4762H64.353ZM65.5596 28.1665V30.7527H65.9015V28.1665H65.5596ZM68.6003 28.1464H68.2464L67.1081 30.7527H67.45L67.7316 30.0971H69.1071L69.3846 30.7527H69.7426L68.6043 28.1464H68.6003ZM68.9864 29.8035H67.8482L68.4153 28.4802L68.9864 29.8035ZM70.913 30.7487H72.6827V30.451H71.2549V28.1625H70.913V30.7487ZM73.8853 28.1625V30.7487H74.2272V28.1625H73.8853ZM75.9728 28.1625H75.6309V30.7487H75.9728V28.6854L77.5655 30.7487H77.8672V28.1625H77.5253V30.1695L75.9728 28.1625ZM81.5272 30.4068V29.3611H80.5016V29.6426H81.1974V30.254L81.1693 30.2741C81.0768 30.3465 80.9682 30.3988 80.8556 30.435C80.7309 30.4752 80.6022 30.4953 80.4735 30.4953C80.3327 30.4953 80.1959 30.4712 80.0672 30.4148C79.9466 30.3626 79.842 30.2902 79.7535 30.1936C79.665 30.0971 79.5966 29.9845 79.5524 29.8598C79.5041 29.7271 79.484 29.5903 79.484 29.4496C79.484 29.3088 79.5082 29.1801 79.5564 29.0514C79.6047 28.9307 79.669 28.8221 79.7535 28.7216C79.838 28.6291 79.9385 28.5526 80.0552 28.4963C80.1758 28.44 80.3005 28.4159 80.4292 28.4159C80.5137 28.4159 80.5941 28.4239 80.6786 28.44C80.751 28.4561 80.8194 28.4762 80.8877 28.5003C80.9521 28.5285 81.0124 28.5607 81.0687 28.5969C81.1089 28.621 81.1451 28.6492 81.1813 28.6773L81.3985 28.4199C81.3503 28.3797 81.298 28.3435 81.2417 28.3113C81.1693 28.2671 81.0969 28.2309 81.0164 28.2027C80.932 28.1705 80.8475 28.1504 80.759 28.1343C80.6544 28.1182 80.5499 28.1102 80.4453 28.1102C80.2603 28.1102 80.0793 28.1424 79.9063 28.2188C79.7455 28.2872 79.6047 28.3837 79.484 28.5084C79.3634 28.6331 79.2749 28.7738 79.2105 28.9347C79.1422 29.0996 79.114 29.2726 79.114 29.4536C79.114 29.6346 79.1422 29.8156 79.2105 29.9845C79.2749 30.1413 79.3634 30.2861 79.48 30.4068C79.6007 30.5315 79.7455 30.62 79.9023 30.6883C80.0793 30.7607 80.2643 30.7889 80.4574 30.7889C80.566 30.7889 80.6786 30.7809 80.7872 30.7567C80.8877 30.7366 80.9843 30.7085 81.0808 30.6682C81.1693 30.632 81.2537 30.5878 81.3342 30.5395C81.4025 30.4993 81.4669 30.451 81.5272 30.4028V30.4068ZM84.0129 28.1625V30.7487H84.3547V28.1625H84.0129ZM86.1003 28.1625H85.7584V30.7487H86.1003V28.6854L87.6931 30.7487H87.9947V28.1625H87.6528V30.1695L86.1003 28.1625ZM92.0288 28.6693L92.2098 28.4159C92.0932 28.3314 91.9685 28.259 91.8318 28.2108C91.6669 28.1504 91.4899 28.1263 91.3169 28.1263C91.1963 28.1263 91.0796 28.1424 90.967 28.1786C90.8705 28.2108 90.778 28.259 90.6975 28.3274C90.6211 28.3917 90.5648 28.4682 90.5246 28.5567C90.4804 28.6492 90.4602 28.7497 90.4602 28.8543C90.4602 28.9589 90.4723 29.0594 90.5125 29.1479C90.5487 29.2283 90.601 29.2927 90.6694 29.349C90.7458 29.4134 90.8423 29.4576 90.9348 29.4938C91.0595 29.538 91.1882 29.5742 91.3169 29.6064C91.4255 29.6305 91.5301 29.6587 91.6347 29.6989C91.7031 29.7231 91.7755 29.7552 91.8358 29.7995C91.884 29.8357 91.9283 29.8799 91.9524 29.9322C91.9725 29.9805 91.9846 30.0368 91.9846 30.0891C91.9846 30.2178 91.9323 30.3223 91.8277 30.3947C91.7151 30.4752 91.5743 30.4993 91.4376 30.4993C91.2687 30.4993 91.1038 30.4712 90.9509 30.4028C90.8182 30.3424 90.6975 30.266 90.5849 30.1735L90.3838 30.4148C90.5206 30.5315 90.6774 30.624 90.8464 30.6883C91.0314 30.7567 91.2285 30.7889 91.4255 30.7889C91.5502 30.7889 91.6789 30.7728 91.7996 30.7366C91.9001 30.7044 92.0007 30.6562 92.0811 30.5878C92.1576 30.5234 92.2179 30.447 92.2621 30.3545C92.3104 30.254 92.3265 30.1454 92.3265 30.0368C92.3265 29.9443 92.3144 29.8518 92.2742 29.7673C92.238 29.6909 92.1897 29.6225 92.1254 29.5702C92.053 29.5059 91.9605 29.4576 91.868 29.4214C91.7473 29.3731 91.6226 29.3329 91.4979 29.3048C91.3893 29.2766 91.2767 29.2484 91.1721 29.2122C91.0997 29.1881 91.0193 29.1559 90.955 29.1117C90.9067 29.0755 90.8584 29.0313 90.8343 28.9749C90.8102 28.9227 90.8021 28.8664 90.8021 28.806C90.8021 28.6894 90.8544 28.5969 90.9429 28.5245C91.0475 28.44 91.1802 28.4159 91.3129 28.4159C91.4456 28.4159 91.5784 28.444 91.7071 28.4923C91.8237 28.5365 91.9323 28.6009 92.0369 28.6693H92.0288ZM95.6125 28.1625H95.2264L94.422 29.4254L93.6256 28.1625H93.2234L94.245 29.7231V30.7487H94.5949V29.711L95.6165 28.1625H95.6125ZM97.1047 28.1625H96.7628V30.7487H97.1047V28.6854L98.7014 30.7487H99.0031V28.1625H98.6612V30.1695L97.1087 28.1625H97.1047ZM102.575 30.3786L102.358 30.1615C102.261 30.2459 102.152 30.3264 102.04 30.3867C101.899 30.4631 101.742 30.4913 101.581 30.4913C101.449 30.4913 101.316 30.4671 101.195 30.4108C101.078 30.3585 100.974 30.2821 100.889 30.1856C100.801 30.0891 100.737 29.9764 100.688 29.8558C100.64 29.7271 100.62 29.5903 100.62 29.4536C100.62 29.3168 100.64 29.1801 100.688 29.0554C100.733 28.9347 100.801 28.8221 100.889 28.7296C100.978 28.6371 101.078 28.5607 101.195 28.5084C101.316 28.4521 101.449 28.4279 101.581 28.4279C101.738 28.4279 101.887 28.4561 102.028 28.5285C102.14 28.5848 102.241 28.6572 102.337 28.7376L102.559 28.4843C102.51 28.44 102.458 28.3998 102.406 28.3636C102.333 28.3153 102.261 28.2711 102.181 28.2349C102.096 28.1987 102.004 28.1705 101.911 28.1504C101.802 28.1303 101.694 28.1223 101.585 28.1223C101.4 28.1223 101.215 28.1544 101.046 28.2268C100.885 28.2952 100.745 28.3918 100.624 28.5164C100.503 28.6411 100.415 28.7819 100.35 28.9428C100.282 29.1117 100.254 29.2846 100.254 29.4656C100.254 29.6466 100.286 29.8236 100.355 29.9925C100.419 30.1494 100.511 30.2942 100.628 30.4148C100.749 30.5355 100.885 30.632 101.042 30.6964C101.207 30.7688 101.384 30.801 101.569 30.801C101.682 30.801 101.794 30.7929 101.903 30.7688C101.996 30.7487 102.088 30.7205 102.177 30.6763C102.261 30.6361 102.337 30.5878 102.414 30.5315C102.474 30.4872 102.526 30.439 102.579 30.3867L102.575 30.3786ZM105.133 28.1625H104.759L105.66 30.7688H105.977L106.693 28.6773L107.409 30.7688H107.727L108.628 28.1625H108.27L107.574 30.3264L106.858 28.1544H106.553L105.837 30.3264L105.141 28.1625H105.133ZM109.843 28.1625V30.7487H110.184V28.1625H109.843ZM113.466 28.4722V28.1625H111.395V28.4722H112.256V30.7487H112.606V28.4722H113.466ZM116.423 30.7487H116.765V28.1625H116.423V29.2927H114.987V28.1625H114.645V30.7487H114.987V29.6024H116.423V30.7487ZM121.47 28.1625H121.084L120.28 29.4254L119.483 28.1625H119.081L120.103 29.7231V30.7487H120.453V29.711L121.474 28.1625H121.47ZM124.978 29.4496C124.978 29.2726 124.945 29.0956 124.877 28.9307C124.813 28.7698 124.72 28.6291 124.6 28.5044C124.479 28.3797 124.334 28.2872 124.173 28.2188C124 28.1464 123.815 28.1142 123.626 28.1142C123.437 28.1142 123.252 28.1464 123.079 28.2228C122.918 28.2912 122.773 28.3877 122.649 28.5124C122.528 28.6371 122.432 28.7779 122.367 28.9387C122.299 29.1037 122.267 29.2766 122.267 29.4576C122.267 29.6386 122.299 29.8115 122.367 29.9764C122.432 30.1373 122.524 30.2781 122.645 30.4028C122.765 30.5275 122.91 30.62 123.071 30.6883C123.244 30.7607 123.429 30.7929 123.618 30.7929C123.807 30.7929 123.992 30.7607 124.165 30.6843C124.326 30.616 124.471 30.5194 124.595 30.3947C124.716 30.2701 124.813 30.1293 124.877 29.9684C124.945 29.8035 124.978 29.6305 124.978 29.4496ZM124.612 29.4576C124.612 29.5943 124.587 29.7271 124.539 29.8558C124.491 29.9764 124.427 30.0891 124.338 30.1816C124.25 30.2781 124.145 30.3505 124.028 30.4028C123.904 30.4591 123.767 30.4832 123.63 30.4832C123.493 30.4832 123.357 30.4591 123.228 30.3988C123.107 30.3465 123.003 30.2701 122.914 30.1735C122.826 30.077 122.757 29.9644 122.709 29.8437C122.661 29.715 122.637 29.5823 122.637 29.4455C122.637 29.3088 122.661 29.1761 122.709 29.0473C122.757 28.9267 122.822 28.8141 122.91 28.7175C122.999 28.621 123.103 28.5486 123.22 28.4963C123.345 28.44 123.481 28.4159 123.618 28.4159C123.755 28.4159 123.892 28.44 124.02 28.5003C124.141 28.5526 124.246 28.629 124.334 28.7256C124.423 28.8221 124.491 28.9347 124.539 29.0554C124.587 29.1841 124.612 29.3168 124.612 29.4536V29.4576ZM128.384 28.1625H128.042V29.6627C128.042 29.8799 127.998 30.1132 127.841 30.2741C127.692 30.4269 127.499 30.4832 127.29 30.4832C127.081 30.4832 126.88 30.4229 126.735 30.262C126.578 30.0931 126.534 29.8598 126.534 29.6386V28.1585H126.192V29.6587C126.192 29.8276 126.212 29.9966 126.269 30.1534C126.317 30.2861 126.385 30.4028 126.486 30.5033C126.582 30.5999 126.699 30.6682 126.828 30.7165C126.973 30.7688 127.129 30.7889 127.282 30.7889C127.435 30.7889 127.596 30.7688 127.745 30.7165C127.873 30.6723 127.99 30.5999 128.087 30.5033C128.187 30.4028 128.26 30.2781 128.308 30.1454C128.368 29.9845 128.388 29.8075 128.388 29.6346V28.1585L128.384 28.1625ZM131.827 30.7487L131.111 29.7472L131.204 29.7231C131.288 29.6989 131.373 29.6667 131.449 29.6185C131.521 29.5742 131.582 29.5219 131.638 29.4576C131.69 29.3932 131.731 29.3208 131.759 29.2404C131.791 29.1519 131.803 29.0514 131.803 28.9589C131.803 28.8462 131.783 28.7336 131.739 28.625C131.698 28.5285 131.638 28.444 131.558 28.3757C131.473 28.3033 131.369 28.251 131.264 28.2188C131.135 28.1786 130.999 28.1625 130.862 28.1625H129.716V30.7487H130.057V29.7995H130.757L131.429 30.7487H131.827ZM131.453 28.983C131.453 29.1399 131.397 29.2726 131.276 29.3691C131.147 29.4737 130.987 29.5099 130.826 29.5099H130.057V28.4601H130.822C130.983 28.4601 131.151 28.4883 131.28 28.5888C131.405 28.6854 131.453 28.8261 131.453 28.983ZM136.436 30.3786L136.219 30.1615C136.123 30.2459 136.014 30.3264 135.902 30.3867C135.761 30.4631 135.604 30.4913 135.443 30.4913C135.31 30.4913 135.178 30.4671 135.057 30.4108C134.94 30.3585 134.836 30.2821 134.751 30.1856C134.663 30.0891 134.598 29.9764 134.55 29.8558C134.502 29.7271 134.482 29.5903 134.482 29.4536C134.482 29.3168 134.502 29.1801 134.55 29.0554C134.594 28.9347 134.663 28.8221 134.751 28.7296C134.84 28.6371 134.94 28.5607 135.057 28.5084C135.178 28.4521 135.31 28.4279 135.443 28.4279C135.6 28.4279 135.749 28.4561 135.889 28.5285C136.002 28.5848 136.103 28.6572 136.199 28.7376L136.42 28.4843C136.372 28.44 136.32 28.3998 136.268 28.3636C136.195 28.3153 136.123 28.2711 136.042 28.2349C135.958 28.1987 135.865 28.1705 135.773 28.1504C135.664 28.1303 135.556 28.1223 135.447 28.1223C135.262 28.1223 135.077 28.1544 134.908 28.2268C134.751 28.2952 134.606 28.3918 134.486 28.5164C134.365 28.6411 134.277 28.7819 134.212 28.9428C134.144 29.1117 134.116 29.2846 134.116 29.4656C134.116 29.6466 134.148 29.8236 134.216 29.9925C134.281 30.1494 134.373 30.2942 134.49 30.4148C134.61 30.5355 134.747 30.632 134.904 30.6964C135.069 30.7688 135.246 30.801 135.431 30.801C135.544 30.801 135.656 30.7929 135.765 30.7688C135.857 30.7487 135.95 30.7205 136.038 30.6763C136.123 30.6361 136.199 30.5878 136.276 30.5315C136.336 30.4872 136.388 30.439 136.44 30.3867L136.436 30.3786ZM138.934 28.1424H138.58L137.442 30.7487H137.784L138.065 30.0931H139.437L139.714 30.7487H140.072L138.934 28.1424ZM139.32 29.7995H138.182L138.749 28.4762L139.32 29.7995ZM143.358 30.7447L142.642 29.7432L142.735 29.719C142.819 29.6949 142.904 29.6627 142.98 29.6145C143.053 29.5702 143.113 29.5179 143.169 29.4536C143.222 29.3892 143.262 29.3168 143.29 29.2364C143.322 29.1479 143.334 29.0473 143.334 28.9548C143.334 28.8422 143.314 28.7296 143.27 28.621C143.23 28.5245 143.169 28.44 143.089 28.3716C143.004 28.2992 142.9 28.247 142.791 28.2148C142.663 28.1746 142.526 28.1585 142.389 28.1585H141.243V30.7447H141.585V29.7955H142.285L142.956 30.7447H143.354H143.358ZM142.984 28.979C142.984 29.1358 142.928 29.2686 142.807 29.3651C142.679 29.4697 142.518 29.5059 142.357 29.5059H141.589V28.4561H142.353C142.514 28.4561 142.683 28.4843 142.811 28.5848C142.936 28.6813 142.984 28.8221 142.984 28.979ZM146.476 28.1585H144.597V30.7447H146.496V30.447H144.939V29.5863H146.303V29.2887H144.939V28.4561H146.476V28.1585ZM149.617 28.1585H147.738V30.7447H149.637V30.447H148.08V29.5863H149.444V29.2887H148.08V28.4561H149.617V28.1585ZM152.991 30.7447L152.275 29.7432L152.368 29.719C152.452 29.6949 152.537 29.6627 152.613 29.6145C152.686 29.5702 152.746 29.5179 152.802 29.4536C152.855 29.3892 152.895 29.3168 152.923 29.2364C152.955 29.1479 152.967 29.0473 152.967 28.9548C152.967 28.8422 152.947 28.7296 152.903 28.621C152.863 28.5245 152.802 28.44 152.722 28.3716C152.637 28.2992 152.533 28.247 152.428 28.2148C152.299 28.1746 152.163 28.1585 152.026 28.1585H150.88V30.7447H151.222V29.7955H151.921L152.593 30.7447H152.991ZM152.617 28.979C152.617 29.1358 152.561 29.2686 152.44 29.3651C152.312 29.4697 152.151 29.5059 151.99 29.5059H151.222V28.4561H151.986C152.147 28.4561 152.316 28.4843 152.444 28.5848C152.569 28.6813 152.617 28.8221 152.617 28.979ZM109.662 22.2822C110.321 22.0731 110.884 21.7714 111.351 21.3773C111.817 20.9871 112.187 20.5165 112.453 19.9615C112.718 19.4065 112.855 18.7871 112.855 18.1114C112.855 16.8967 112.437 15.9394 111.608 15.2517C110.776 14.5599 109.481 14.0169 107.727 13.6268C106.858 13.4458 106.146 13.2567 105.591 13.0516C105.036 12.8505 104.602 12.6253 104.288 12.3759C103.974 12.1265 103.757 11.853 103.637 11.5514C103.516 11.2497 103.456 10.9159 103.456 10.5378C103.456 10.1597 103.536 9.83797 103.693 9.52425C103.85 9.21053 104.075 8.93703 104.369 8.71179C104.662 8.48656 105.012 8.30556 105.426 8.17283C105.837 8.03608 106.299 7.97173 106.81 7.97173C107.618 7.97173 108.395 8.10848 109.139 8.37796C109.883 8.64744 110.619 9.08182 111.355 9.68111L112.389 8.30958C111.58 7.67008 110.744 7.19145 109.879 6.87371C109.018 6.55596 108.009 6.3991 106.854 6.3991C106.106 6.3991 105.414 6.5077 104.783 6.72489C104.151 6.94208 103.604 7.24374 103.142 7.62986C102.675 8.01195 102.317 8.46644 102.06 8.98931C101.806 9.5162 101.678 10.0954 101.678 10.7268C101.678 11.3583 101.782 11.9576 101.992 12.4362C102.201 12.9189 102.526 13.3412 102.961 13.6992C103.395 14.0571 103.946 14.3668 104.618 14.6202C105.286 14.8776 106.074 15.1028 106.971 15.2999C107.799 15.4809 108.479 15.6659 109.014 15.863C109.545 16.0601 109.963 16.2773 110.261 16.5146C110.567 16.7559 110.776 17.0214 110.896 17.315C111.017 17.6126 111.077 17.9464 111.077 18.3205C111.077 19.1289 110.76 19.7845 110.12 20.2833C109.485 20.778 108.632 21.0273 107.566 21.0273C106.5 21.0273 105.503 20.8423 104.666 20.4763C103.826 20.1103 102.993 19.5513 102.168 18.7991L101.066 20.1023C102.012 20.955 103.005 21.5824 104.047 21.9886C105.088 22.3989 106.239 22.6 107.498 22.6C108.278 22.6 108.998 22.4954 109.658 22.2863L109.662 22.2822ZM142.285 16.591C142.285 17.4155 142.433 18.1958 142.735 18.9319C143.037 19.6679 143.451 20.3074 143.982 20.8544C144.513 21.4014 145.144 21.8358 145.872 22.1576C146.6 22.4793 147.393 22.6402 148.245 22.6402C149.339 22.6402 150.26 22.427 151 22.0007C151.744 21.5744 152.408 21.0314 152.991 20.3677L151.889 19.3341C151.423 19.8288 150.904 20.243 150.325 20.5729C149.749 20.9027 149.082 21.0676 148.334 21.0676C147.718 21.0676 147.151 20.9509 146.636 20.7177C146.118 20.4844 145.667 20.1666 145.285 19.7524C144.903 19.3381 144.601 18.8554 144.384 18.3044C144.167 17.7494 144.058 17.1621 144.058 16.5307C144.058 15.8992 144.163 15.316 144.372 14.769C144.581 14.226 144.875 13.7474 145.249 13.3331C145.623 12.9189 146.065 12.6011 146.576 12.3678C147.087 12.1346 147.634 12.0179 148.217 12.0179C149.013 12.0179 149.681 12.1909 150.232 12.5368C150.779 12.8827 151.286 13.2929 151.752 13.7756L152.899 12.5609C152.629 12.2753 152.336 12.0059 152.022 11.7525C151.708 11.4991 151.362 11.2779 150.988 11.0888C150.614 10.8998 150.2 10.755 149.749 10.6504C149.299 10.5459 148.796 10.4936 148.241 10.4936C147.389 10.4936 146.596 10.6544 145.868 10.9762C145.14 11.298 144.513 11.7364 143.978 12.2914C143.447 12.8465 143.029 13.494 142.731 14.2381C142.429 14.9822 142.281 15.7625 142.281 16.591H142.285ZM129.144 10.7429V22.3747H130.878V15.7142C130.878 15.1752 130.966 14.6805 131.135 14.2301C131.308 13.7796 131.554 13.3935 131.867 13.0717C132.181 12.7499 132.555 12.5006 132.982 12.3276C133.408 12.1547 133.87 12.0702 134.365 12.0702C135.399 12.0702 136.195 12.3839 136.75 13.0154C137.305 13.6469 137.583 14.4995 137.583 15.5815V22.3747H139.316V15.1511C139.316 14.4593 139.216 13.8319 139.011 13.2607C138.809 12.6896 138.516 12.1989 138.134 11.7887C137.752 11.3744 137.285 11.0567 136.738 10.8314C136.191 10.6062 135.564 10.4936 134.86 10.4936C133.854 10.4936 133.038 10.7148 132.406 11.1572C131.775 11.5996 131.268 12.1346 130.878 12.766V10.7429H129.144ZM114.878 10.7429L119.443 21.1882H120.469L119.962 22.3265C119.616 23.155 119.266 23.7262 118.904 24.0399C118.546 24.3536 118.104 24.5145 117.577 24.5145C117.203 24.5145 116.877 24.4823 116.6 24.4139C116.322 24.3456 116.041 24.237 115.755 24.0881L115.172 25.4597C115.562 25.6527 115.952 25.8015 116.342 25.8981C116.732 25.9946 117.167 26.0429 117.645 26.0429C118.514 26.0429 119.254 25.7935 119.862 25.2988C120.469 24.8041 121.02 23.9554 121.515 22.7568L126.397 10.7429H124.551L120.815 20.4401L116.785 10.7429H114.874H114.878ZM56.1842 19.877L55.0138 18.7308C54.2657 19.4507 53.4975 20.0098 52.7172 20.408C51.9369 20.8061 51.0078 21.0032 49.9259 21.0032C49.0571 21.0032 48.2487 20.8343 47.5086 20.4964C46.7645 20.1586 46.121 19.696 45.574 19.1128C45.027 18.5296 44.6007 17.8379 44.291 17.0415C43.9853 16.2451 43.8284 15.3924 43.8284 14.4754C43.8284 13.5584 43.9813 12.7097 44.291 11.9214C44.5966 11.1331 45.027 10.4493 45.574 9.8621C46.121 9.2789 46.7645 8.82039 47.5086 8.49058C48.2527 8.16077 49.0571 7.99586 49.9259 7.99586C51.0078 7.99586 51.9329 8.19697 52.7051 8.60319C53.4774 9.00942 54.2013 9.52425 54.877 10.1557L56.0917 8.85256C55.7016 8.47851 55.2953 8.13663 54.877 7.82694C54.4587 7.52126 54.0002 7.2558 53.5055 7.03861C53.0108 6.82142 52.4759 6.65249 51.8967 6.53183C51.3215 6.41117 50.67 6.35084 49.95 6.35084C48.7957 6.35084 47.7298 6.56401 46.7565 6.99035C45.7832 7.41669 44.9425 8.00391 44.2387 8.74397C43.5348 9.48805 42.9838 10.3528 42.5856 11.3422C42.1874 12.3316 41.9903 13.3895 41.9903 14.5156C41.9903 15.6418 42.1874 16.7197 42.5856 17.7091C42.9838 18.6986 43.5348 19.5593 44.2387 20.2833C44.9425 21.0113 45.7751 21.5824 46.7364 22.0047C47.6977 22.423 48.7474 22.6362 49.8857 22.6362C50.6056 22.6362 51.2572 22.5678 51.8444 22.4351C52.4316 22.2983 52.9786 22.1133 53.4854 21.872C53.9962 21.6307 54.4708 21.3451 54.9132 21.0072C55.3557 20.6694 55.778 20.2913 56.1842 19.873V19.877ZM60.7291 17.7413C60.7291 16.8726 60.8498 16.1043 61.0911 15.4367C61.3325 14.769 61.6623 14.21 62.0806 13.7595C62.4989 13.309 62.9895 12.9712 63.5526 12.7459C64.1157 12.5207 64.711 12.4081 65.3425 12.4081H65.4792V10.5418C64.9242 10.5257 64.4053 10.5941 63.9267 10.7429C63.4481 10.8917 63.0056 11.113 62.5994 11.4066C62.1932 11.7002 61.8352 12.0461 61.5215 12.4523C61.2078 12.8585 60.9423 13.301 60.7332 13.7796V10.7429H58.9997V22.3747H60.7332V17.7413H60.7291ZM68.6727 17.2024H77.8752C77.8913 17.0978 77.8993 17.0013 77.8993 16.9088V16.6594C77.8993 15.8067 77.7787 15.0023 77.5373 14.2542C77.296 13.5061 76.9461 12.8505 76.4795 12.2954C76.013 11.7404 75.4459 11.302 74.7702 10.9802C74.0945 10.6585 73.3303 10.4976 72.4736 10.4976C71.6651 10.4976 70.917 10.6544 70.2373 10.9722C69.5536 11.2859 68.9663 11.7163 68.4716 12.2673C67.9769 12.8143 67.5908 13.4578 67.3133 14.2019C67.0357 14.946 66.899 15.7343 66.899 16.5749C66.899 17.4759 67.0559 18.3004 67.3655 19.0485C67.6752 19.7966 68.0976 20.4401 68.6245 20.971C69.1513 21.502 69.7667 21.9162 70.4746 22.2098C71.1785 22.5034 71.9306 22.6482 72.7229 22.6482C73.833 22.6482 74.7621 22.4512 75.5143 22.053C76.2624 21.6548 76.93 21.1279 77.5172 20.4683L76.4393 19.503C75.9607 19.9977 75.4298 20.3959 74.8546 20.6935C74.2795 20.9952 73.5837 21.144 72.7752 21.144C72.2644 21.144 71.7778 21.0595 71.3112 20.8866C70.8446 20.7136 70.4263 20.4602 70.0523 20.1224C69.6782 19.7845 69.3685 19.3743 69.1312 18.8836C68.8899 18.3969 68.7411 17.8379 68.6808 17.2064L68.6727 17.2024ZM68.6727 15.9193C68.7331 15.3482 68.8658 14.8253 69.0749 14.3427C69.2841 13.8641 69.5536 13.4458 69.8793 13.0958C70.2092 12.7419 70.5872 12.4644 71.0176 12.2633C71.4479 12.0622 71.9225 11.9576 72.4253 11.9576C73.0085 11.9576 73.5153 12.0662 73.9537 12.2834C74.3961 12.5006 74.7661 12.7902 75.0758 13.1481C75.3815 13.5101 75.6188 13.9284 75.7918 14.407C75.9607 14.8857 76.0693 15.3884 76.1135 15.9153H68.6687L68.6727 15.9193ZM92.0007 22.3747V5.9607H90.2672V12.9792C90.0419 12.6494 89.7845 12.3357 89.4909 12.034C89.1973 11.7324 88.8715 11.4709 88.5136 11.2457C88.1556 11.0205 87.7494 10.8395 87.2989 10.7067C86.8484 10.57 86.3537 10.5056 85.8148 10.5056C85.1109 10.5056 84.4271 10.6464 83.7675 10.9239C83.1079 11.2014 82.5167 11.5996 81.9898 12.1145C81.4629 12.6333 81.0446 13.2648 80.7309 14.0169C80.4171 14.765 80.2603 15.6217 80.2603 16.583C80.2603 17.5442 80.4171 18.3969 80.7309 19.149C81.0446 19.8972 81.4669 20.5326 81.9898 21.0515C82.5167 21.5703 83.1079 21.9605 83.7675 22.234C84.4271 22.5034 85.1109 22.6402 85.8148 22.6402C86.3537 22.6402 86.8444 22.5718 87.2868 22.4391C87.7293 22.3023 88.1315 22.1173 88.4894 21.876C88.8514 21.6347 89.1772 21.3572 89.4668 21.0434C89.7604 20.7297 90.0259 20.3999 90.2672 20.054V22.3949H92.0007V22.3747ZM90.3356 16.5468C90.3356 17.2185 90.2189 17.8338 89.9856 18.3969C89.7524 18.956 89.4386 19.4266 89.0405 19.8167C88.6423 20.2028 88.1918 20.5085 87.689 20.7217C87.1863 20.9389 86.6634 21.0475 86.1245 21.0475C85.5855 21.0475 85.0425 20.9429 84.5478 20.7337C84.0531 20.5286 83.6187 20.2229 83.2406 19.8288C82.8666 19.4306 82.5689 18.96 82.3518 18.409C82.1346 17.8539 82.026 17.2345 82.026 16.5508C82.026 15.867 82.1346 15.2195 82.3518 14.6604C82.5689 14.0973 82.8626 13.6308 83.2286 13.2487C83.5946 12.8706 84.029 12.577 84.5237 12.3799C85.0184 12.1788 85.5493 12.0783 86.1204 12.0783C86.6594 12.0783 87.1823 12.1869 87.685 12.404C88.1878 12.6172 88.6382 12.9229 89.0364 13.309C89.4346 13.6992 89.7483 14.1657 89.9816 14.7208C90.2149 15.2758 90.3315 15.8872 90.3315 16.5588L90.3356 16.5468ZM100.198 4.19099L96.9237 6.99437L96.0308 6.04114V7.9838L96.8714 8.98127L100.198 4.19099ZM97.7603 22.3747V10.7429H96.0268V22.3747H97.7603Z" fill="#111827"/>
</svg>
