<svg width="32" height="32" viewBox="0 0 32 32" fill="none" xmlns="http://www.w3.org/2000/svg">
<rect width="32" height="32" rx="8" fill="#D7AE0B" fill-opacity="0.1"/>
<path d="M12.6666 17.666C15.428 17.666 17.6666 15.4274 17.6666 12.666C17.6666 9.90459 15.428 7.66602 12.6666 7.66602C9.9052 7.66602 7.66663 9.90459 7.66663 12.666C7.66663 15.4274 9.9052 17.666 12.6666 17.666Z" stroke="#D7AE0B" stroke-width="1.66667" stroke-linecap="round" stroke-linejoin="round"/>
<path d="M21.075 14.6416C21.8628 14.9353 22.5638 15.4229 23.1132 16.0593C23.6625 16.6957 24.0426 17.4603 24.2182 18.2825C24.3937 19.1047 24.3591 19.9579 24.1176 20.7631C23.876 21.5684 23.4353 22.2998 22.8362 22.8896C22.2371 23.4794 21.499 23.9087 20.69 24.1376C19.8811 24.3666 19.0275 24.3879 18.2081 24.1995C17.3888 24.0111 16.6301 23.6192 16.0024 23.0599C15.3746 22.5007 14.8981 21.7922 14.6167 20.9999" stroke="#D7AE0B" stroke-width="1.66667" stroke-linecap="round" stroke-linejoin="round"/>
<path d="M11.8334 11H12.6667V14.3333" stroke="#D7AE0B" stroke-width="1.66667" stroke-linecap="round" stroke-linejoin="round"/>
<path d="M19.925 17.5664L20.5083 18.1581L18.1583 20.5081" stroke="#D7AE0B" stroke-width="1.66667" stroke-linecap="round" stroke-linejoin="round"/>
</svg>
