<svg width="16" height="16" viewBox="0 0 16 16" fill="none" xmlns="http://www.w3.org/2000/svg">
<path d="M6.26344 12.9138L6.65307 13.79C6.7689 14.0509 6.95792 14.2725 7.19722 14.4281C7.43652 14.5836 7.71581 14.6664 8.00122 14.6663C8.28663 14.6664 8.56592 14.5836 8.80522 14.4281C9.04452 14.2725 9.23354 14.0509 9.34937 13.79L9.739 12.9138C9.8777 12.6028 10.111 12.3436 10.4057 12.173C10.7022 12.002 11.0452 11.9291 11.3857 11.9649L12.339 12.0663C12.6228 12.0964 12.9092 12.0434 13.1635 11.9139C13.4177 11.7844 13.629 11.5839 13.7716 11.3367C13.9144 11.0897 13.9824 10.8065 13.9674 10.5216C13.9524 10.2367 13.8551 9.96221 13.6871 9.73153L13.1227 8.95597C12.9217 8.67776 12.8143 8.34288 12.816 7.99967C12.816 7.6574 12.9244 7.32391 13.1257 7.04708L13.6901 6.27153C13.858 6.04084 13.9554 5.76639 13.9704 5.48146C13.9854 5.19653 13.9173 4.91337 13.7746 4.66634C13.632 4.41916 13.4207 4.21867 13.1664 4.08916C12.9121 3.95965 12.6257 3.90669 12.342 3.93671L11.3886 4.03819C11.0482 4.07395 10.7052 4.00109 10.4086 3.83004C10.1134 3.65851 9.88001 3.39791 9.74196 3.0856L9.34937 2.2093C9.23354 1.94846 9.04452 1.72682 8.80522 1.57127C8.56592 1.41573 8.28663 1.33296 8.00122 1.33301C7.71581 1.33296 7.43652 1.41573 7.19722 1.57127C6.95792 1.72682 6.7689 1.94846 6.65307 2.2093L6.26344 3.0856C6.1254 3.39791 5.89202 3.65851 5.59678 3.83004C5.30025 4.00109 4.95722 4.07395 4.61678 4.03819L3.66048 3.93671C3.3767 3.90669 3.09031 3.95965 2.83602 4.08916C2.58174 4.21867 2.37049 4.41916 2.22789 4.66634C2.0851 4.91337 2.01708 5.19653 2.03207 5.48146C2.04705 5.76639 2.14441 6.04084 2.31233 6.27153L2.87678 7.04708C3.07807 7.32391 3.18647 7.6574 3.18641 7.99967C3.18647 8.34195 3.07807 8.67544 2.87678 8.95227L2.31233 9.72782C2.14441 9.95851 2.04705 10.233 2.03207 10.5179C2.01708 10.8028 2.0851 11.086 2.22789 11.333C2.37063 11.5801 2.58191 11.7804 2.83615 11.9099C3.0904 12.0394 3.37672 12.0925 3.66048 12.0626L4.61381 11.9612C4.95426 11.9254 5.29729 11.9983 5.59381 12.1693C5.89017 12.3404 6.12462 12.601 6.26344 12.9138Z" stroke="#374151" stroke-width="1.33333" stroke-linecap="round" stroke-linejoin="round"/>
<path d="M8.00003 9.99967C9.1046 9.99967 10 9.10424 10 7.99967C10 6.89511 9.1046 5.99967 8.00003 5.99967C6.89546 5.99967 6.00003 6.89511 6.00003 7.99967C6.00003 9.10424 6.89546 9.99967 8.00003 9.99967Z" stroke="#374151" stroke-width="1.33333" stroke-linecap="round" stroke-linejoin="round"/>
</svg>
