<svg width="14" height="14" viewBox="0 0 14 14" fill="none" xmlns="http://www.w3.org/2000/svg">
<path d="M5.01083 7.88116L8.995 10.2028M8.98917 3.79783L5.01083 6.11949M12.25 2.91699C12.25 3.88349 11.4665 4.66699 10.5 4.66699C9.5335 4.66699 8.75 3.88349 8.75 2.91699C8.75 1.95049 9.5335 1.16699 10.5 1.16699C11.4665 1.16699 12.25 1.95049 12.25 2.91699ZM5.25 7.00033C5.25 7.96682 4.4665 8.75033 3.5 8.75033C2.5335 8.75033 1.75 7.96682 1.75 7.00033C1.75 6.03383 2.5335 5.25033 3.5 5.25033C4.4665 5.25033 5.25 6.03383 5.25 7.00033ZM12.25 11.0837C12.25 12.0502 11.4665 12.8337 10.5 12.8337C9.5335 12.8337 8.75 12.0502 8.75 11.0837C8.75 10.1172 9.5335 9.33366 10.5 9.33366C11.4665 9.33366 12.25 10.1172 12.25 11.0837Z" stroke="#111827" stroke-width="1.16667" stroke-linecap="round" stroke-linejoin="round"/>
</svg>
