<svg width="32" height="32" viewBox="0 0 32 32" fill="none" xmlns="http://www.w3.org/2000/svg">
<rect x="0.5" y="0.5" width="31" height="31" rx="15.5" fill="#163B6D"/>
<rect x="0.5" y="0.5" width="31" height="31" rx="15.5" stroke="#163B6D"/>
<path d="M22 22.75C22 21.7033 22 21.18 21.8708 20.7541C21.58 19.7953 20.8297 19.045 19.8709 18.7542C19.445 18.625 18.9217 18.625 17.875 18.625H14.125C13.0783 18.625 12.555 18.625 12.1291 18.7542C11.1703 19.045 10.42 19.7953 10.1292 20.7541C10 21.18 10 21.7033 10 22.75M19.375 12.625C19.375 14.489 17.864 16 16 16C14.136 16 12.625 14.489 12.625 12.625C12.625 10.761 14.136 9.25 16 9.25C17.864 9.25 19.375 10.761 19.375 12.625Z" stroke="white" stroke-width="1.5" stroke-linecap="round" stroke-linejoin="round"/>
</svg>
