<svg width="14" height="14" viewBox="0 0 14 14" fill="none" xmlns="http://www.w3.org/2000/svg">
<path d="M1.41174 7.41635C1.3323 7.29056 1.29257 7.22766 1.27034 7.13065C1.25364 7.05778 1.25364 6.94287 1.27034 6.87C1.29257 6.77299 1.3323 6.71009 1.41174 6.58431C2.06823 5.54482 4.02232 2.91699 7.00024 2.91699C9.97815 2.91699 11.9322 5.54482 12.5887 6.5843C12.6682 6.71009 12.7079 6.77299 12.7301 6.87C12.7468 6.94287 12.7468 7.05778 12.7301 7.13065C12.7079 7.22766 12.6682 7.29056 12.5887 7.41635C11.9322 8.45584 9.97815 11.0837 7.00024 11.0837C4.02232 11.0837 2.06823 8.45584 1.41174 7.41635Z" stroke="#111827" stroke-width="1.16667" stroke-linecap="round" stroke-linejoin="round"/>
<path d="M7.00024 8.75033C7.96673 8.75033 8.75024 7.96682 8.75024 7.00033C8.75024 6.03383 7.96673 5.25033 7.00024 5.25033C6.03374 5.25033 5.25024 6.03383 5.25024 7.00033C5.25024 7.96682 6.03374 8.75033 7.00024 8.75033Z" stroke="#111827" stroke-width="1.16667" stroke-linecap="round" stroke-linejoin="round"/>
</svg>
