<svg width="36" height="36" viewBox="0 0 36 36" fill="none" xmlns="http://www.w3.org/2000/svg">
<rect width="36" height="36" rx="9" fill="#163B6D" fill-opacity="0.1"/>
<path d="M25.3332 18.459V13.234C25.3332 11.6938 25.3332 10.9238 25.0334 10.3355C24.7698 9.81806 24.3491 9.39737 23.8316 9.13372C23.2434 8.83398 22.4733 8.83398 20.9332 8.83398H15.0665C13.5264 8.83398 12.7563 8.83398 12.168 9.13372C11.6506 9.39737 11.2299 9.81806 10.9662 10.3355C10.6665 10.9238 10.6665 11.6938 10.6665 13.234V22.7673C10.6665 24.3075 10.6665 25.0775 10.9662 25.6658C11.2299 26.1832 11.6506 26.6039 12.168 26.8676C12.7563 27.1673 13.5264 27.1673 15.0665 27.1673H17.9998M19.8332 17.084H14.3332M16.1665 20.7507H14.3332M21.6665 13.4173H14.3332M20.2915 24.4173L22.1248 26.2507L26.2498 22.1257" stroke="#163B6D" stroke-width="1.83333" stroke-linecap="round" stroke-linejoin="round"/>
</svg>
