<svg width="22" height="22" viewBox="0 0 22 22" fill="none" xmlns="http://www.w3.org/2000/svg">
<path d="M18.3332 11.459V6.23398C18.3332 4.69384 18.3332 3.92377 18.0334 3.33551C17.7698 2.81806 17.3491 2.39737 16.8316 2.13372C16.2434 1.83398 15.4733 1.83398 13.9332 1.83398H8.0665C6.52636 1.83398 5.75629 1.83398 5.16803 2.13372C4.65058 2.39737 4.22989 2.81806 3.96624 3.33551C3.6665 3.92377 3.6665 4.69384 3.6665 6.23398V15.7673C3.6665 17.3075 3.6665 18.0775 3.96624 18.6658C4.22989 19.1832 4.65058 19.6039 5.16803 19.8676C5.75629 20.1673 6.52636 20.1673 8.0665 20.1673H10.9998M12.8332 10.084H7.33317M9.1665 13.7507H7.33317M14.6665 6.41732H7.33317M13.2915 17.4173L15.1248 19.2507L19.2498 15.1257" stroke="#163B6D" stroke-width="1.83333" stroke-linecap="round" stroke-linejoin="round"/>
</svg>
