<svg width="45" height="45" viewBox="0 0 45 45" fill="none" xmlns="http://www.w3.org/2000/svg">
<rect width="45" height="45" rx="10" fill="#163B6D" fill-opacity="0.05"/>
<path d="M28.3333 21.3333V17.8333C28.3333 14.6117 25.7217 12 22.5 12C19.2783 12 16.6667 14.6117 16.6667 17.8333V21.3333M17.6 33H27.4C29.3602 33 30.3403 33 31.089 32.6185C31.7475 32.283 32.283 31.7475 32.6185 31.089C33 30.3403 33 29.3602 33 27.4V26.9333C33 24.9732 33 23.9931 32.6185 23.2444C32.283 22.5858 31.7475 22.0504 31.089 21.7148C30.3403 21.3333 29.3602 21.3333 27.4 21.3333H17.6C15.6398 21.3333 14.6597 21.3333 13.911 21.7148C13.2525 22.0504 12.717 22.5858 12.3815 23.2444C12 23.9931 12 24.9732 12 26.9333V27.4C12 29.3602 12 30.3403 12.3815 31.089C12.717 31.7475 13.2525 32.283 13.911 32.6185C14.6597 33 15.6398 33 17.6 33Z" stroke="#163B6D" stroke-width="2.33333" stroke-linecap="round" stroke-linejoin="round"/>
</svg>
