<svg width="28" height="28" viewBox="0 0 28 28" fill="none" xmlns="http://www.w3.org/2000/svg">
<path d="M23.3333 14.0014C23.3333 19.7279 17.087 23.8929 14.8143 25.2188C14.556 25.3694 14.4268 25.4448 14.2446 25.4839C14.1031 25.5142 13.8968 25.5142 13.7553 25.4839C13.5731 25.4448 13.4439 25.3694 13.1856 25.2188C10.9129 23.8929 4.66663 19.7279 4.66663 14.0014V8.42193C4.66663 7.48917 4.66663 7.02278 4.81918 6.62188C4.95395 6.26773 5.17294 5.95172 5.45723 5.70118C5.77904 5.41757 6.21572 5.25382 7.0891 4.9263L13.3445 2.58052C13.5871 2.48956 13.7083 2.44408 13.8331 2.42606C13.9438 2.41006 14.0562 2.41006 14.1668 2.42606C14.2916 2.44408 14.4128 2.48956 14.6554 2.58051L20.9108 4.9263C21.7842 5.25382 22.2209 5.41757 22.5427 5.70118C22.827 5.95172 23.046 6.26773 23.1807 6.62188C23.3333 7.02278 23.3333 7.48917 23.3333 8.42193V14.0014Z" stroke="#163B6D" stroke-width="2.33333" stroke-linecap="round" stroke-linejoin="round"/>
</svg>
