<svg width="45" height="45" viewBox="0 0 45 45" fill="none" xmlns="http://www.w3.org/2000/svg">
<rect width="45" height="45" rx="10" fill="#163B6D" fill-opacity="0.05"/>
<path d="M25.9997 10.832H15.4997C14.8809 10.832 14.2874 11.0779 13.8498 11.5154C13.4122 11.953 13.1664 12.5465 13.1664 13.1654V31.832C13.1664 32.4509 13.4122 33.0444 13.8498 33.482C14.2874 33.9195 14.8809 34.1654 15.4997 34.1654H29.4997C30.1186 34.1654 30.712 33.9195 31.1496 33.482C31.5872 33.0444 31.833 32.4509 31.833 31.832V16.6654L25.9997 10.832Z" stroke="#163B6D" stroke-width="2.33333" stroke-linecap="round" stroke-linejoin="round"/>
<path d="M24.8336 10.832V15.4987C24.8336 16.1175 25.0795 16.711 25.517 17.1486C25.9546 17.5862 26.5481 17.832 27.167 17.832H31.8336" stroke="#163B6D" stroke-width="2.33333" stroke-linecap="round" stroke-linejoin="round"/>
<path d="M20.167 19H17.8336" stroke="#163B6D" stroke-width="2.33333" stroke-linecap="round" stroke-linejoin="round"/>
<path d="M27.167 23.668H17.8336" stroke="#163B6D" stroke-width="2.33333" stroke-linecap="round" stroke-linejoin="round"/>
<path d="M27.167 28.332H17.8336" stroke="#163B6D" stroke-width="2.33333" stroke-linecap="round" stroke-linejoin="round"/>
</svg>
