<svg width="15" height="12" viewBox="0 0 15 12" fill="none" xmlns="http://www.w3.org/2000/svg">
<path d="M0.999959 5.99935H3.2546C3.71141 5.99935 4.129 6.25744 4.33329 6.66602C4.53758 7.07459 4.95518 7.33268 5.41198 7.33268H9.2546C9.71141 7.33268 10.129 7.07459 10.3333 6.66602C10.5376 6.25744 10.9552 5.99935 11.412 5.99935H13.6666M5.311 0.666016H9.35558C10.0735 0.666016 10.4325 0.666016 10.7494 0.775325C11.0296 0.87199 11.2849 1.02975 11.4967 1.23718C11.7362 1.47175 11.8967 1.79282 12.2178 2.43493L13.6621 5.32368C13.7881 5.57567 13.8511 5.70167 13.8955 5.83371C13.935 5.95098 13.9635 6.07166 13.9806 6.19419C14 6.33217 14 6.47303 14 6.75477V8.13268C14 9.25279 14 9.81284 13.782 10.2407C13.5902 10.617 13.2843 10.9229 12.9079 11.1147C12.4801 11.3327 11.9201 11.3327 10.8 11.3327H3.86663C2.74652 11.3327 2.18647 11.3327 1.75865 11.1147C1.38232 10.9229 1.07636 10.617 0.884613 10.2407C0.666626 9.81284 0.666626 9.25279 0.666626 8.13268V6.75477C0.666626 6.47303 0.666626 6.33217 0.685942 6.19419C0.703096 6.07166 0.731584 5.95098 0.771039 5.83371C0.815466 5.70167 0.878465 5.57567 1.00446 5.32368L2.44883 2.43493C2.7699 1.79281 2.93043 1.47175 3.16992 1.23718C3.38171 1.02975 3.63697 0.87199 3.91722 0.775325C4.23413 0.666016 4.59309 0.666016 5.311 0.666016Z" stroke="#374151" stroke-width="1.33333" stroke-linecap="round" stroke-linejoin="round"/>
</svg>
