<svg width="60" height="60" viewBox="0 0 60 60" fill="none" xmlns="http://www.w3.org/2000/svg">
<path d="M6.25 30H14.7049C16.4179 30 17.9839 30.9678 18.75 32.5C19.5161 34.0322 21.0821 35 22.7951 35H37.2049C38.9179 35 40.4839 34.0322 41.25 32.5C42.0161 30.9678 43.5821 30 45.2951 30H53.75M22.4164 10H37.5836C40.2758 10 41.6219 10 42.8103 10.4099C43.8612 10.7724 44.8184 11.364 45.6126 12.1419C46.5107 13.0215 47.1127 14.2255 48.3167 16.6334L53.7331 27.4663C54.2056 28.4112 54.4418 28.8837 54.6084 29.3789C54.7564 29.8186 54.8632 30.2712 54.9276 30.7307C55 31.2481 55 31.7763 55 32.8328V38C55 42.2004 55 44.3006 54.1825 45.9049C53.4635 47.3161 52.3161 48.4635 50.9049 49.1825C49.3006 50 47.2004 50 43 50H17C12.7996 50 10.6994 50 9.09507 49.1825C7.68386 48.4635 6.5365 47.3161 5.81745 45.9049C5 44.3006 5 42.2004 5 38V32.8328C5 31.7763 5 31.2481 5.07244 30.7307C5.13676 30.2712 5.24359 29.8186 5.39155 29.3789C5.55815 28.8837 5.7944 28.4112 6.26687 27.4663L11.6833 16.6334C12.8873 14.2255 13.4893 13.0215 14.3874 12.1419C15.1816 11.364 16.1388 10.7724 17.1897 10.4099C18.3781 10 19.7242 10 22.4164 10Z" stroke="#92949F" stroke-width="5" stroke-linecap="round" stroke-linejoin="round"/>
</svg>
