<svg width="20" height="20" viewBox="0 0 20 20" fill="none" xmlns="http://www.w3.org/2000/svg">
<g clip-path="url(#clip0_90145_1926)">
<path d="M7.01625 10.8213L12.9925 14.3037M12.9837 4.69625L7.01625 8.17875M17.875 3.375C17.875 4.82475 16.6997 6 15.25 6C13.8003 6 12.625 4.82475 12.625 3.375C12.625 1.92525 13.8003 0.75 15.25 0.75C16.6997 0.75 17.875 1.92525 17.875 3.375ZM7.375 9.5C7.375 10.9497 6.19975 12.125 4.75 12.125C3.30025 12.125 2.125 10.9497 2.125 9.5C2.125 8.05025 3.30025 6.875 4.75 6.875C6.19975 6.875 7.375 8.05025 7.375 9.5ZM17.875 15.625C17.875 17.0747 16.6997 18.25 15.25 18.25C13.8003 18.25 12.625 17.0747 12.625 15.625C12.625 14.1753 13.8003 13 15.25 13C16.6997 13 17.875 14.1753 17.875 15.625Z" stroke="white" stroke-width="1.75" stroke-linecap="round" stroke-linejoin="round"/>
</g>
<defs>
<clipPath id="clip0_90145_1926">
<rect width="20" height="20" fill="white"/>
</clipPath>
</defs>
</svg>
